<svg id="visual" viewBox="0 0 900 600" width="900" height="600" xmlns="http://www.w3.org/2000/svg" xmlns:xlink="http://www.w3.org/1999/xlink" version="1.1"><rect x="0" y="0" width="900" height="600" fill="#001220"></rect><defs><linearGradient id="grad1_0" x1="33.3%" y1="100%" x2="100%" y2="0%"><stop offset="20%" stop-color="#001220" stop-opacity="1"></stop><stop offset="80%" stop-color="#001220" stop-opacity="1"></stop></linearGradient></defs><defs><linearGradient id="grad2_0" x1="0%" y1="100%" x2="66.7%" y2="0%"><stop offset="20%" stop-color="#001220" stop-opacity="1"></stop><stop offset="80%" stop-color="#001220" stop-opacity="1"></stop></linearGradient></defs><g transform="translate(900, 600)"><path d="M-297.5 0C-292.7 -38 -288 -76 -274.8 -113.8C-261.6 -151.7 -240 -189.4 -208.6 -208.6C-177.2 -227.8 -135.9 -228.5 -99.5 -240.2C-63.1 -251.9 -31.5 -274.7 0 -297.5L0 0Z" fill="#3b33b3"></path></g><g transform="translate(0, 0)"><path d="M297.5 0C292.5 40.6 287.5 81.3 267.9 111C248.4 140.7 214.2 159.5 188.1 188.1C162 216.7 143.8 255 113.8 274.8C83.8 294.7 41.9 296.1 0 297.5L0 0Z" fill="#3b33b3"></path></g></svg>